<?xml version="1.0" encoding="UTF-8"?>
<!--Generator: Apple Native CoreSVG 341-->
<!DOCTYPE svg
PUBLIC "-//W3C//DTD SVG 1.1//EN"
       "http://www.w3.org/Graphics/SVG/1.1/DTD/svg11.dtd">
<svg version="1.1" xmlns="http://www.w3.org/2000/svg" xmlns:xlink="http://www.w3.org/1999/xlink" viewBox="0 0 3300 2200">
 <!--glyph: "custom", point size: 100.0-->
 <style>.defaults {-sfsymbols-draw-reverses-motion-groups:false}

.monochrome-0 {-sfsymbols-motion-group:0;-sfsymbols-layer-tags:music.note.list.gearshape.fill}
.multicolor-0:tintColor {-sfsymbols-motion-group:0;-sfsymbols-layer-tags:music.note.list.gearshape.fill}
.hierarchical-0:primary {-sfsymbols-motion-group:0;-sfsymbols-layer-tags:music.note.list.gearshape.fill}

.SFSymbolsPreviewWireframe {fill:none;opacity:1.0;stroke:black;stroke-width:0.5}
</style>
 <g id="Notes">
  <rect height="2200" id="artboard" style="fill:white;opacity:1" width="3300" x="0" y="0"/>
  <line style="fill:none;stroke:black;opacity:1;stroke-width:0.5;" x1="263" x2="3036" y1="292" y2="292"/>
  <text style="stroke:none;fill:black;font-family:sans-serif;font-size:13;font-weight:bold;" transform="matrix(1 0 0 1 263 322)">Weight/Scale Variations</text>
  <text style="stroke:none;fill:black;font-family:sans-serif;font-size:13;text-anchor:middle;" transform="matrix(1 0 0 1 559.711 322)">Ultralight</text>
  <text style="stroke:none;fill:black;font-family:sans-serif;font-size:13;text-anchor:middle;" transform="matrix(1 0 0 1 1449.84 322)">Regular</text>
  <text style="stroke:none;fill:black;font-family:sans-serif;font-size:13;text-anchor:middle;" transform="matrix(1 0 0 1 2933.4 322)">Black</text>
  <line style="fill:none;stroke:black;opacity:1;stroke-width:0.5;" x1="263" x2="3036" y1="1903" y2="1903"/>
  <text style="stroke:none;fill:black;font-family:sans-serif;font-size:13;font-weight:bold;" transform="matrix(1 0 0 1 263 1953)">Design Variations</text>
  <text style="stroke:none;fill:black;font-family:sans-serif;font-size:13;" transform="matrix(1 0 0 1 263 1971)">Symbols are supported in up to nine weights and three scales.</text>
  <text id="template-version" style="stroke:none;fill:black;font-family:sans-serif;font-size:13;text-anchor:end;" transform="matrix(1 0 0 1 3036 1933)">Template v.7.0</text>
  <text style="stroke:none;fill:black;font-family:sans-serif;font-size:13;text-anchor:end;" transform="matrix(1 0 0 1 3036 1951)">Requires Xcode 26 or greater</text>
  <text id="descriptive-name" style="stroke:none;fill:black;font-family:sans-serif;font-size:13;text-anchor:end;" transform="matrix(1 0 0 1 3036 1969)">Generated from music.note.list.gearshape.fill</text>
  <text style="stroke:none;fill:black;font-family:sans-serif;font-size:13;text-anchor:end;" transform="matrix(1 0 0 1 3036 1987)">Typeset at 100.0 points</text>
  <text style="stroke:none;fill:black;font-family:sans-serif;font-size:13;" transform="matrix(1 0 0 1 263 726)">Small</text>
  <text style="stroke:none;fill:black;font-family:sans-serif;font-size:13;" transform="matrix(1 0 0 1 263 1156)">Medium</text>
  <text style="stroke:none;fill:black;font-family:sans-serif;font-size:13;" transform="matrix(1 0 0 1 263 1586)">Large</text>
 </g>
 <g id="Guides">
  <line id="Baseline-S" style="fill:none;stroke:#27AAE1;opacity:1;stroke-width:0.5;" x1="263" x2="3036" y1="696" y2="696"/>
  <line id="Capline-S" style="fill:none;stroke:#27AAE1;opacity:1;stroke-width:0.5;" x1="263" x2="3036" y1="625.541" y2="625.541"/>
  <line id="Baseline-M" style="fill:none;stroke:#27AAE1;opacity:1;stroke-width:0.5;" x1="263" x2="3036" y1="1126" y2="1126"/>
  <line id="Capline-M" style="fill:none;stroke:#27AAE1;opacity:1;stroke-width:0.5;" x1="263" x2="3036" y1="1055.54" y2="1055.54"/>
  <line id="Baseline-L" style="fill:none;stroke:#27AAE1;opacity:1;stroke-width:0.5;" x1="263" x2="3036" y1="1556" y2="1556"/>
  <line id="Capline-L" style="fill:none;stroke:#27AAE1;opacity:1;stroke-width:0.5;" x1="263" x2="3036" y1="1485.54" y2="1485.54"/>
  <line id="left-margin-Ultralight-S" style="fill:none;stroke:#00AEEF;stroke-width:0.5;opacity:1.0;" x1="513.147" x2="513.147" y1="600.785" y2="720.121"/>
  <line id="right-margin-Ultralight-S" style="fill:none;stroke:#00AEEF;stroke-width:0.5;opacity:1.0;" x1="606.275" x2="606.275" y1="600.785" y2="720.121"/>
  <line id="left-margin-Regular-S" style="fill:none;stroke:#00AEEF;stroke-width:0.5;opacity:1.0;" x1="1400.6" x2="1400.6" y1="600.785" y2="720.121"/>
  <line id="right-margin-Regular-S" style="fill:none;stroke:#00AEEF;stroke-width:0.5;opacity:1.0;" x1="1499.09" x2="1499.09" y1="600.785" y2="720.121"/>
  <line id="left-margin-Black-S" style="fill:none;stroke:#00AEEF;stroke-width:0.5;opacity:1.0;" x1="2881.98" x2="2881.98" y1="600.785" y2="720.121"/>
  <line id="right-margin-Black-S" style="fill:none;stroke:#00AEEF;stroke-width:0.5;opacity:1.0;" x1="2984.82" x2="2984.82" y1="600.785" y2="720.121"/>
 </g>
 <g id="Symbols">
  <g id="Ultralight-S" transform="matrix(1 0 0 1 513.147 696)">
   <path class="monochrome-0 multicolor-0:tintColor hierarchical-0:primary SFSymbolsPreviewWireframe" style="fill-rule:evenodd" d="M83.3623-54.3892L83.3623-67.7627C83.3623-69.3174 82.1983-70.2339 80.6924-69.9307L63.251-66.2173C61.6587-65.8584 60.7876-64.8999 60.7876-63.377L61.0146-22.5425C61.0317-20.1943 59.793-18.5718 57.6436-18.1426L51.6309-16.873C44.7686-15.4399 41.4243-12.1172 41.4243-6.8413C41.4243-1.65282 45.3364 1.91067 51.0132 1.91067C56.3174 1.91067 63.8247-1.74705 63.8247-12.0762L63.8247-45.4751C63.8247-47.9277 64.481-48.7656 66.8257-49.2891L81.8916-52.6118C82.8047-52.814 83.3623-53.4761 83.3623-54.3892Z M 21.981447763305475,-25.790342098339234 L 25.19956077597929,-25.790342098339234 C 26.110498051557567,-25.790342098339234 26.70213514091581,-26.279980284975633 26.925127170993843,-27.24639816147936 L 27.68569001969357,-30.494116008875263 C 28.093317946514123,-30.661612814229734 28.53604298880508,-30.811565240077037 28.95549530095673,-30.983344729164504 L 31.811272378678943,-29.179444915002435 C 32.61591553311828,-28.657575877325716 33.39260634202226,-28.73775189503543 34.03830970211706,-29.383459433358254 L 36.285736778352266,-31.63088233136543 C 36.95040929371321,-32.31452400199252 37.0320100871819,-33.056117695426096 36.50730821089935,-33.900161540209 L 34.70482063781216,-36.71657970986797 C 34.876629374495856,-37.15500117728577 35.028006576102136,-37.57875706431058 35.19262876057046,-38.01859912925933 L 38.46217576032055,-38.780582575489994 C 39.42717930663538,-39.00215400803708 39.91536346991657,-39.593791097395325 39.91536346991657,-40.50614897050455 L 39.91536346991657,-43.70103103531938 C 39.91536346991657,-44.610547713366714 39.42717930663538,-45.20218480272496 38.46217576032055,-45.423714452991724 L 35.195469955632355,-46.18716027903366 C 35.02800657610214,-46.63414711391745 34.87516699468459,-47.056482403411316 34.70770361515438,-47.49060029595596 L 36.51014940596124,-50.31132204048809 C 37.0320100871819,-51.137775545255465 36.95471286858637,-51.89265600383141 36.288619755694484,-52.57771827198944 L 34.03830970211706,-54.82514534822465 C 33.391185744491324,-55.468007513257554 32.620219107991446,-55.553911881599404 31.8155759535521,-55.032009418098426 L 28.95549530095673,-53.225260052418406 C 28.537463586336024,-53.39706878910209 28.094738544045068,-53.54698361089711 27.68569001969357,-53.71448877270764 L 26.925127170993843,-56.96648721472253 C 26.70213514091581,-57.932911358568305 26.110498051557567,-58.42255790166076 25.19956077597929,-58.42255790166076 L 21.981447763305475,-58.42255790166076 C 21.070510487727198,-58.42255790166076 20.478873398368954,-57.932911358568305 20.257301965821867,-56.96648721472253 L 19.495318519591198,-53.71737175004986 C 19.051172879769297,-53.549866588239325 18.643544952948744,-53.39990998416398 18.206544083061893,-53.226680649949344 L 15.347884027997464,-55.032009418098426 C 14.54182027602718,-55.553911881599404 13.769433041996356,-55.470848708319444 13.123687899621238,-54.82514534822465 L 10.873419628324143,-52.57771827198944 C 10.207326515432255,-51.892656003831405 10.129987514556401,-51.137775545255465 10.651848195777054,-50.31132204048809 L 12.454335768864244,-47.49060029595596 C 12.286830607053707,-47.056482403411316 12.134032807916483,-46.63414711391745 11.96794824363689,-46.18716027903366 L 8.720253376495162,-45.423714452991724 C 7.753825054421357,-45.20218480272496 7.265620000000001,-44.610547713366714 7.265620000000002,-43.70103103531938 L 7.265620000000002,-40.50614897050455 C 7.265620000000002,-39.593791097395325 7.753825054421357,-39.00215400803708 8.720253376495162,-38.780582575489994 L 11.970831220979104,-38.01859912925933 C 12.134032807916483,-37.57875706431058 12.285410009522762,-37.15500117728577 12.457176963926132,-36.71657970986797 L 10.654731173119266,-33.900161540209 C 10.129987514556401,-33.056117695426096 10.211588308025089,-32.31452400199252 10.87626082338603,-31.63088233136543 L 13.123687899621238,-29.383459433358254 C 13.769433041996354,-28.73775189503543 14.546082068620013,-28.657575877325716 15.3521458205903,-29.179444915002435 L 18.207964680592838,-30.983344729164504 C 18.64496555047969,-30.811565240077037 19.051172879769297,-30.661612814229734 19.495318519591198,-30.494116008875263 L 20.257301965821867,-27.24639816147936 C 20.478873398368954,-26.279980284975633 21.070510487727198,-25.790342098339234 21.981447763305475,-25.790342098339234 M 23.581709099634622,-36.306319499387136 C 20.366855104825913,-36.306319499387136 17.7626073546416,-38.9119878471024 17.762607354641595,-42.12542124438016 C 17.762607354641595,-45.338854641657925 20.366855104825913,-47.94452298937318 23.581709099634622,-47.94452298937318 C 26.814153434458852,-47.94452298937318 29.41840118464317,-45.338854641657925 29.41840118464317,-42.12542124438016 C 29.41840118464317,-38.9119878471024 26.814153434458852,-36.30631949938714 23.581709099634622,-36.30631949938714"/>
   <g transform="matrix(0.35384 0 0 0.35384 7.34681 -29.64838)"><path class="monochrome-0 multicolor-0:tintColor hierarchical-0:primary SFSymbolsPreviewWireframe" style="fill-rule:evenodd" d="M42.0562 3.84181L49.7583 3.84181C51.9385 3.84181 53.3545 2.66993 53.8882 0.356945L55.7085-7.41601C56.6841-7.81689 57.7437-8.17578 58.7476-8.58691L65.5825-4.26953C67.5083-3.02051 69.3672-3.2124 70.9126-4.75781L76.2915-10.1367C77.8823-11.7729 78.0776-13.5478 76.8218-15.5679L72.5078-22.3086C72.919-23.3579 73.2813-24.3721 73.6753-25.4248L81.5005-27.2485C83.8101-27.7788 84.9785-29.1948 84.9785-31.3784L84.9785-39.0249C84.9785-41.2017 83.8101-42.6177 81.5005-43.1479L73.6821-44.9751C73.2813-46.0449 72.9155-47.0557 72.5147-48.0947L76.8286-54.8457C78.0776-56.8237 77.8926-58.6304 76.2984-60.27L70.9126-65.6489C69.3638-67.1875 67.5186-67.3931 65.5928-66.144L58.7476-61.8198C57.7471-62.231 56.6875-62.5898 55.7085-62.9907L53.8882-70.7739C53.3545-73.0869 51.9385-74.2588 49.7583-74.2588L42.0562-74.2588C39.876-74.2588 38.46-73.0869 37.9297-70.7739L36.106-62.9976C35.043-62.5967 34.0674-62.2378 33.0215-61.8232L26.1797-66.144C24.2505-67.3931 22.4019-67.1943 20.8564-65.6489L15.4707-60.27C13.8765-58.6304 13.6914-56.8237 14.9404-54.8457L19.2544-48.0947C18.8535-47.0557 18.4878-46.0449 18.0903-44.9751L10.3174-43.1479C8.00439-42.6177 6.83594-41.2017 6.83594-39.0249L6.83594-31.3784C6.83594-29.1948 8.00439-27.7788 10.3174-27.2485L18.0972-25.4248C18.4878-24.3721 18.8501-23.3579 19.2612-22.3086L14.9473-15.5679C13.6914-13.5478 13.8867-11.7729 15.4775-10.1367L20.8564-4.75781C22.4019-3.2124 24.2607-3.02051 26.1899-4.26953L33.0249-8.58691C34.0708-8.17578 35.043-7.81689 36.106-7.41601L37.9297 0.356945C38.46 2.66993 39.876 3.84181 42.0562 3.84181ZM45.8862-21.3267C38.1919-21.3267 31.959-27.563 31.959-35.2539C31.959-42.9448 38.1919-49.1811 45.8862-49.1811C53.6226-49.1811 59.8555-42.9448 59.8555-35.2539C59.8555-27.563 53.6226-21.3267 45.8862-21.3267Z"/></g>
  </g>
  <g id="Regular-S" transform="matrix(1 0 0 1 1400.6 696)">
   <path class="monochrome-0 multicolor-0:tintColor hierarchical-0:primary SFSymbolsPreviewWireframe" style="fill-rule:evenodd" d="M88.7207-55.6152L88.7207-70.2148C88.7207-72.3145 87.0117-73.7305 84.9609-73.291L64.7949-68.8965C62.1582-68.3105 60.7422-66.9434 60.7422-64.6484L60.7422-21.6797C60.9863-19.9219 60.1562-18.7988 58.6426-18.5059L52.5391-17.2363C44.6777-15.5762 41.0156-11.5723 41.0156-5.61523C41.0156 0.390625 45.6543 4.58984 52.1484 4.58984C57.8613 4.58984 66.5039 0.341797 66.5039-10.9863L66.5039-46.3379C66.5039-48.291 66.7969-48.584 68.5059-48.9258L86.5234-52.9297C87.8906-53.2227 88.7207-54.248 88.7207-55.6152Z M 24.832235418177937,-23.42617862846489 L 28.125991357405503,-23.42617862846489 C 29.06037357982378,-23.42617862846489 29.737801887101583,-23.986812746014067 29.971409402951693,-24.89784856914198 L 30.929138024660336,-28.985822221277758 C 31.70004761106391,-29.242780920516445 32.42416871692244,-29.523100371340142 33.07825062490988,-29.85013654123565 L 36.65230687856828,-27.654312006012514 C 37.399822224699335,-27.18711611070516 38.310858047827246,-27.257193581361975 38.94159355652432,-27.88790995366619 L 41.25422663377072,-30.20053824681438 C 41.884914301485644,-30.83126418731502 41.97834773962926,-31.788992809023664 41.464439909348314,-32.55990239542724 L 39.29198090980841,-36.11056440881312 C 39.619021863802125,-36.76464631680056 39.92271641850548,-37.48881526364124 40.13292969408307,-38.16624357091905 L 44.26763441758529,-39.14736643290021 C 45.15532384142284,-39.3575797084778 45.692578070994145,-40.035055856737756 45.69257807099415,-40.992784478446396 L 45.69257807099415,-44.21645337882072 C 45.69257807099415,-45.12748920194862 45.15532384142285,-45.80491750922643 44.26763441758529,-46.01517862578618 L 40.17967033364595,-47.0196478870577 C 39.92271641850548,-47.813856031769475 39.595675464511764,-48.514678579319806 39.338721549371286,-49.098673448453994 L 41.5111805489112,-52.71942250069313 C 41.97834773962926,-53.513678486387064 41.95500134033889,-54.37797366995209 41.30091943235145,-55.03205557793953 L 38.94159355652432,-57.344688655185934 C 38.28751164853688,-57.92868352432012 37.46990926355258,-58.092204001316986 36.72239391742153,-57.62498896961677 L 33.07825062490988,-55.382442931223615 C 32.44756295719496,-55.70948388521734 31.72339401035427,-55.98983204063032 30.929138024660336,-56.2467859557708 L 29.971409402951693,-60.40483707856339 C 29.737801887101583,-61.31587290169131 29.060373579823782,-61.87652137153512 28.125991357405503,-61.876521371535134 L 24.832235418177937,-61.876521371535134 C 23.897853195759662,-61.876521371535134 23.220377047499703,-61.31587290169131 23.010163771922116,-60.40483707856339 L 22.029040909940957,-56.293478754351526 C 21.281525563809904,-56.036524839211054 20.510663818388487,-55.75622452478022 19.87992830969141,-55.40583717149613 L 16.25917925745228,-57.62498896961677 C 15.48826967104871,-58.092204001316986 14.647320886774045,-57.975424163883005 14.016633219059123,-57.344688655185934 L 11.657259502249836,-55.03205557793953 C 11.003177594262398,-54.377973669952084 10.979831194972032,-53.513678486387064 11.447046226672247,-52.71942250069313 L 13.619505226212157,-49.098673448453994 C 13.362551311071686,-48.514678579319806 13.035510357077964,-47.813856031769475 12.801902841227857,-47.0196478870577 L 8.713929189092081,-46.01517862578618 C 7.802893365964169,-45.804917509226435 7.265619999999998,-45.12748920194863 7.265619999999998,-44.21645337882072 L 7.265619999999998,-40.992784478446396 C 7.265619999999998,-40.035055856737756 7.802893365964168,-39.3575797084778 8.713929189092081,-39.14736643290021 L 12.84864348079074,-38.16624357091905 C 13.035510357077964,-37.48881526364124 13.339157070799166,-36.76464631680056 13.666198024792887,-36.11056440881312 L 11.493739025252978,-32.55990239542724 C 10.979831194972034,-31.788992809023664 11.073264633115645,-30.83126418731502 11.70400014181272,-30.20053824681438 L 14.016633219059123,-27.88790995366619 C 14.647320886774047,-27.257193581361975 15.558356709901958,-27.18711611070516 16.329218455323375,-27.654312006012514 L 19.90332254996393,-29.85013654123565 C 20.53401021767885,-29.523100371340142 21.281525563809904,-29.242780920516445 22.029040909940957,-28.985822221277758 L 23.010163771922116,-24.89784856914198 C 23.220377047499706,-23.986812746014067 23.897853195759662,-23.42617862846489 24.83223541817794,-23.42617862846489 M 26.490786587436904,-36.22739208722925 C 22.940076733068867,-36.22739208722925 20.06684302696079,-39.124020033609845 20.06684302696079,-42.651335647705366 C 20.06684302696079,-46.178699102783035 22.94007673306887,-49.07527920818148 26.490786587436904,-49.075279208181485 C 30.01810220153242,-49.075279208181485 32.89138374862265,-46.178699102783035 32.89138374862265,-42.651335647705366 C 32.89138374862265,-39.124020033609845 30.01810220153242,-36.22739208722925 26.490786587436904,-36.22739208722925"/>
   <g transform="matrix(0.41616 0 0 0.41616 6.92077 -27.98005)"><path class="monochrome-0 multicolor-0:tintColor hierarchical-0:primary SFSymbolsPreviewWireframe" style="fill-rule:evenodd" d="M43.5547 4.93164L50.4395 4.93164C52.3926 4.93164 53.8086 3.75977 54.2969 1.85547L56.2988-6.68945C57.9102-7.22656 59.4238-7.8125 60.791-8.49609L68.2617-3.90625C69.8242-2.92969 71.7285-3.07617 73.0469-4.39453L77.8809-9.22852C79.1992-10.5469 79.3945-12.5488 78.3203-14.1602L73.7793-21.582C74.4629-22.9492 75.0977-24.4629 75.5371-25.8789L84.1797-27.9297C86.0352-28.3691 87.1582-29.7852 87.1582-31.7871L87.1582-38.5254C87.1582-40.4297 86.0352-41.8457 84.1797-42.2852L75.6348-44.3848C75.0977-46.0449 74.4141-47.5098 73.877-48.7305L78.418-56.2988C79.3945-57.959 79.3457-59.7656 77.9785-61.1328L73.0469-65.9668C71.6797-67.1875 69.9707-67.5293 68.4082-66.5527L60.791-61.8652C59.4727-62.5488 57.959-63.1348 56.2988-63.6719L54.2969-72.3633C53.8086-74.2676 52.3926-75.4395 50.4395-75.4395L43.5547-75.4395C41.6016-75.4395 40.1855-74.2676 39.7461-72.3633L37.6953-63.7695C36.1328-63.2324 34.5215-62.6465 33.2031-61.9141L25.6348-66.5527C24.0234-67.5293 22.2656-67.2852 20.9473-65.9668L16.0156-61.1328C14.6484-59.7656 14.5996-57.959 15.5762-56.2988L20.1172-48.7305C19.5801-47.5098 18.8965-46.0449 18.4082-44.3848L9.86328-42.2852C7.95898-41.8457 6.83594-40.4297 6.83594-38.5254L6.83594-31.7871C6.83594-29.7852 7.95898-28.3691 9.86328-27.9297L18.5059-25.8789C18.8965-24.4629 19.5312-22.9492 20.2148-21.582L15.6738-14.1602C14.5996-12.5488 14.7949-10.5469 16.1133-9.22852L20.9473-4.39453C22.2656-3.07617 24.1699-2.92969 25.7812-3.90625L33.252-8.49609C34.5703-7.8125 36.1328-7.22656 37.6953-6.68945L39.7461 1.85547C40.1855 3.75977 41.6016 4.93164 43.5547 4.93164ZM47.0215-21.8262C39.5996-21.8262 33.5938-27.8809 33.5938-35.2539C33.5938-42.627 39.5996-48.6816 47.0215-48.6816C54.3945-48.6816 60.4004-42.627 60.4004-35.2539C60.4004-27.8809 54.3945-21.8262 47.0215-21.8262Z"/></g>
  </g>
  <g id="Black-S" transform="matrix(1 0 0 1 2881.98 696)">
   <path class="monochrome-0 multicolor-0:tintColor hierarchical-0:primary SFSymbolsPreviewWireframe" style="fill-rule:evenodd" d="M93.0664-55.8594L93.0664-69.9219C93.0664-73.5352 89.9902-76.0742 86.4746-75.293L66.5527-70.9473C62.8418-70.166 60.8398-67.9688 60.8398-64.6973L60.8398-23.1934C60.8398-22.3145 60.5957-22.0215 60.0098-21.875L53.6621-20.5566C44.7754-18.75 40.0391-13.8672 40.0391-6.49414C40.0391 1.07422 45.6055 6.20117 53.7109 6.20117C63.2812 6.20117 70.6055-1.2207 70.6055-11.1328L70.6055-46.3867C70.6055-47.2656 70.0684-46.7773 70.9961-47.0215L89.1113-50.9766C91.5039-51.4648 93.0664-53.418 93.0664-55.8594Z M 25.508815136291698,-24.455874517873188 L 28.582261653462773,-24.455874517873188 C 30.228800636652103,-24.455874517873188 31.5240192218664,-25.487683733287604 31.897235324194362,-27.068319793601095 L 32.62168190374025,-30.075921836388446 C 32.81928276745925,-30.141784294923593 32.99489800606821,-30.229596410265927 33.17051324467718,-30.295458868801074 L 35.78298100059436,-28.670911805174775 C 37.14406654038166,-27.83668367091279 38.83448685303395,-27.990359143997843 39.97603086437078,-29.13192923235422 L 42.149415563386995,-31.30530943533259 C 43.29100453510237,-32.446880422896534 43.400752819138326,-34.18121353727678 42.566557955556476,-35.54229907706408 L 40.98588592694014,-38.13278120787123 C 41.051752881513146,-38.286455781748714 41.11761983608614,-38.440130355626195 41.183486790659146,-38.61574559423516 L 44.213051978367254,-39.3402371341596 C 45.793679046605035,-39.713408276109014 46.82547477390589,-41.00867182170186 46.82547477390589,-42.65516584451264 L 46.82547477390589,-45.662790367489265 C 46.82547477390589,-47.287298765190016 45.793679046605035,-48.60450297551435 44.213051978367254,-48.97771907784231 L 41.227368120122115,-49.68022499265672 C 41.161546125927664,-49.85584023126568 41.09567917135466,-50.03150043025319 41.007871552050176,-50.18517500413067 L 42.610439285019446,-52.8634647542423 C 43.46661977371133,-54.2904172486026 43.312945199833855,-55.93691127141338 42.149415563386995,-57.07850024312875 L 39.93214953490781,-59.27382560687646 C 38.79056056319244,-60.28368066944583 37.275800449527665,-60.48123657278628 35.914669949361816,-59.75678999324039 L 33.17051324467718,-58.066414640966634 C 32.99489800606822,-58.15422226027112 32.819282767459256,-58.22004425446557 32.64362256847174,-58.30789683414861 L 31.897235324194362,-61.3594026865882 C 31.502078557134915,-62.94002975482598 30.228800636652103,-63.97182548212683 28.582261653462773,-63.97182548212683 L 25.508815136291698,-63.97182548212683 C 23.862321113480917,-63.97182548212683 22.5890431929981,-62.94002975482598 22.193886425938654,-61.33741706147816 L 21.469394886014218,-58.32983749888008 C 21.27183898267377,-58.263970544307085 21.07423811895477,-58.1761629250026 20.89862288034581,-58.088355305698116 L 18.17640684039266,-59.75678999324039 C 16.793335675495328,-60.48123657278628 15.256634897099065,-60.349547624018825 14.136986590115178,-59.25188494214497 L 11.941661226367474,-57.07850024312875 C 10.778131589920623,-55.93691127141338 10.624457016043142,-54.29041724860261 11.480637504735029,-52.8634647542423 L 13.083250198082842,-50.18517500413067 C 12.99544257877836,-50.03150043025319 12.92957562420536,-49.855840231265674 12.863708669632361,-49.68022499265672 L 9.878069771765766,-48.97771907784231 C 8.297424719376568,-48.60450297551435 7.265620000000004,-47.287298765190016 7.265620000000005,-45.662790367489265 L 7.265620000000005,-42.65516584451264 C 7.265620000000005,-41.00867182170186 8.297424719376568,-39.71340827610901 9.878069771765766,-39.3402371341596 L 12.907634959473876,-38.61574559423516 C 12.973456953668327,-38.440130355626195 13.039323908241327,-38.286455781748714 13.105190862814325,-38.13278120787123 L 11.524563794576544,-35.54229907706408 C 10.69032397061614,-34.18121353727678 10.800117215030653,-32.44688042289654 11.941661226367474,-31.30530943533259 L 14.115045925383695,-29.13192923235422 C 15.256634897099064,-27.990359143997843 16.94701024937281,-27.83668367091279 18.30814074953866,-28.670911805174775 L 20.92056354507729,-30.295458868801074 C 21.096223744064805,-30.229596410265927 21.271838982673767,-30.141784294923593 21.469394886014218,-30.075921836388446 L 22.193886425938654,-27.068319793601095 C 22.56705756788807,-25.487683733287604 23.862321113480917,-24.455874517873188 25.508815136291698,-24.455874517873188 M 27.04556087506651,-38.462071020357676 C 23.862321113480917,-38.462071020357676 21.293779647405252,-41.03061248643334 21.293779647405252,-44.21385224801894 C 21.293779647405252,-47.39709200960453 23.862321113480917,-49.96563347568019 27.04556087506651,-49.96563347568019 C 30.228800636652103,-49.96563347568019 32.79729714234922,-47.39709200960453 32.79729714234922,-44.21385224801894 C 32.79729714234922,-41.03061248643334 30.228800636652103,-38.462071020357676 27.04556087506651,-38.462071020357676"/>
   <g transform="matrix(0.39278 0 0 0.39278 7.08061 -30.36689)"><path class="monochrome-0 multicolor-0:tintColor hierarchical-0:primary SFSymbolsPreviewWireframe" style="fill-rule:evenodd" d="M47.4121 8.69141L54.248 8.69141C57.9102 8.69141 60.791 6.39648 61.6211 2.88086L63.2324-3.80859C63.6719-3.95508 64.0625-4.15039 64.4531-4.29688L70.2637-0.683594C73.291 1.17188 77.0508 0.830078 79.5898-1.70898L84.4238-6.54297C86.9629-9.08203 87.207-12.9395 85.3516-15.9668L81.8359-21.7285C81.9824-22.0703 82.1289-22.4121 82.2754-22.8027L89.0137-24.4141C92.5293-25.2441 94.8242-28.125 94.8242-31.7871L94.8242-38.4766C94.8242-42.0898 92.5293-45.0195 89.0137-45.8496L82.373-47.4121C82.2266-47.8027 82.0801-48.1934 81.8848-48.5352L85.4492-54.4922C87.3535-57.666 87.0117-61.3281 84.4238-63.8672L79.4922-68.75C76.9531-70.9961 73.584-71.4355 70.5566-69.8242L64.4531-66.0645C64.0625-66.2598 63.6719-66.4062 63.2812-66.6016L61.6211-73.3887C60.7422-76.9043 57.9102-79.1992 54.248-79.1992L47.4121-79.1992C43.75-79.1992 40.918-76.9043 40.0391-73.3398L38.4277-66.6504C37.9883-66.5039 37.5488-66.3086 37.1582-66.1133L31.1035-69.8242C28.0273-71.4355 24.6094-71.1426 22.1191-68.7012L17.2363-63.8672C14.6484-61.3281 14.3066-57.666 16.2109-54.4922L19.7754-48.5352C19.5801-48.1934 19.4336-47.8027 19.2871-47.4121L12.6465-45.8496C9.13086-45.0195 6.83594-42.0898 6.83594-38.4766L6.83594-31.7871C6.83594-28.125 9.13086-25.2441 12.6465-24.4141L19.3848-22.8027C19.5312-22.4121 19.6777-22.0703 19.8242-21.7285L16.3086-15.9668C14.4531-12.9395 14.6973-9.08203 17.2363-6.54297L22.0703-1.70898C24.6094 0.830078 28.3691 1.17188 31.3965-0.683594L37.207-4.29688C37.5977-4.15039 37.9883-3.95508 38.4277-3.80859L40.0391 2.88086C40.8691 6.39648 43.75 8.69141 47.4121 8.69141ZM50.8301-22.4609C43.75-22.4609 38.0371-28.1738 38.0371-35.2539C38.0371-42.334 43.75-48.0469 50.8301-48.0469C57.9102-48.0469 63.623-42.334 63.623-35.2539C63.623-28.1738 57.9102-22.4609 50.8301-22.4609Z"/></g>
  </g>
 </g>
</svg>
