<?xml version="1.0" encoding="UTF-8"?>
<!--Generator: Apple Native CoreSVG 341-->
<!DOCTYPE svg
PUBLIC "-//W3C//DTD SVG 1.1//EN"
       "http://www.w3.org/Graphics/SVG/1.1/DTD/svg11.dtd">
<svg version="1.1" xmlns="http://www.w3.org/2000/svg" xmlns:xlink="http://www.w3.org/1999/xlink" viewBox="0 0 3300 2200">
 <!--glyph: "1030C6", point size: 100.0, font version: "21.1d1e1", template writer version: "138.0.0"-->
 <style>.defaults {-sfsymbols-variable-value-mode:color;-sfsymbols-draw-reverses-motion-groups:false}

.monochrome-0 {-sfsymbols-motion-group:1;-sfsymbols-layer-tags:music.pages.fill}
.monochrome-1 {opacity:0.0;-sfsymbols-clear-behind:true;-sfsymbols-motion-group:0;-sfsymbols-layer-tags:music.pages.fill}
.monochrome-2 {-sfsymbols-motion-group:0;-sfsymbols-layer-tags:music.pages.fill}
.monochrome-3 {opacity:0.0;-sfsymbols-clear-behind:true;-sfsymbols-motion-group:0;-sfsymbols-layer-tags:music.pages.fill}

.multicolor-0:tintColor {-sfsymbols-motion-group:1;-sfsymbols-layer-tags:music.pages.fill}
.multicolor-1:tintColor {opacity:0.0;-sfsymbols-clear-behind:true;-sfsymbols-motion-group:0;-sfsymbols-layer-tags:music.pages.fill}
.multicolor-2:tintColor {-sfsymbols-motion-group:0;-sfsymbols-layer-tags:music.pages.fill}
.multicolor-3:white {-sfsymbols-motion-group:0;-sfsymbols-layer-tags:music.pages.fill}

.hierarchical-0:secondary {-sfsymbols-motion-group:1;-sfsymbols-layer-tags:music.pages.fill}
.hierarchical-1:primary {opacity:0.0;-sfsymbols-clear-behind:true;-sfsymbols-motion-group:0;-sfsymbols-layer-tags:music.pages.fill}
.hierarchical-2:primary {-sfsymbols-motion-group:0;-sfsymbols-layer-tags:music.pages.fill}
.hierarchical-3:primary {opacity:0.0;-sfsymbols-clear-behind:true;-sfsymbols-motion-group:0;-sfsymbols-layer-tags:music.pages.fill}

.SFSymbolsPreviewWireframe {fill:none;opacity:1.0;stroke:black;stroke-width:0.5}
</style>
 <g id="Notes">
  <rect height="2200" id="artboard" style="fill:white;opacity:1" width="3300" x="0" y="0"/>
  <line style="fill:none;stroke:black;opacity:1;stroke-width:0.5;" x1="263" x2="3036" y1="292" y2="292"/>
  <text style="stroke:none;fill:black;font-family:sans-serif;font-size:13;font-weight:bold;" transform="matrix(1 0 0 1 263 322)">Weight/Scale Variations</text>
  <text style="stroke:none;fill:black;font-family:sans-serif;font-size:13;text-anchor:middle;" transform="matrix(1 0 0 1 559.711 322)">Ultralight</text>
  <text style="stroke:none;fill:black;font-family:sans-serif;font-size:13;text-anchor:middle;" transform="matrix(1 0 0 1 856.422 322)">Thin</text>
  <text style="stroke:none;fill:black;font-family:sans-serif;font-size:13;text-anchor:middle;" transform="matrix(1 0 0 1 1153.13 322)">Light</text>
  <text style="stroke:none;fill:black;font-family:sans-serif;font-size:13;text-anchor:middle;" transform="matrix(1 0 0 1 1449.84 322)">Regular</text>
  <text style="stroke:none;fill:black;font-family:sans-serif;font-size:13;text-anchor:middle;" transform="matrix(1 0 0 1 1746.56 322)">Medium</text>
  <text style="stroke:none;fill:black;font-family:sans-serif;font-size:13;text-anchor:middle;" transform="matrix(1 0 0 1 2043.27 322)">Semibold</text>
  <text style="stroke:none;fill:black;font-family:sans-serif;font-size:13;text-anchor:middle;" transform="matrix(1 0 0 1 2339.98 322)">Bold</text>
  <text style="stroke:none;fill:black;font-family:sans-serif;font-size:13;text-anchor:middle;" transform="matrix(1 0 0 1 2636.69 322)">Heavy</text>
  <text style="stroke:none;fill:black;font-family:sans-serif;font-size:13;text-anchor:middle;" transform="matrix(1 0 0 1 2933.4 322)">Black</text>
  <line style="fill:none;stroke:black;opacity:1;stroke-width:0.5;" x1="263" x2="3036" y1="1903" y2="1903"/>
  <g transform="matrix(0.2 0 0 0.2 263 1933)">
   <path d="m46.2402 4.15039c21.7773 0 39.4531-17.627 39.4531-39.4043s-17.6758-39.4043-39.4531-39.4043c-21.7285 0-39.4043 17.627-39.4043 39.4043s17.6758 39.4043 39.4043 39.4043Zm0-7.42188c-17.6758 0-31.9336-14.3066-31.9336-31.9824s14.2578-31.9824 31.9336-31.9824 31.9824 14.3066 31.9824 31.9824-14.3066 31.9824-31.9824 31.9824Zm3.61328-17.7734v-28.4668c0-2.24609-1.46484-3.75977-3.71094-3.75977-2.14844 0-3.61328 1.51367-3.61328 3.75977v28.4668c0 2.19727 1.46484 3.71094 3.61328 3.71094 2.24609 0 3.71094-1.51367 3.71094-3.71094Zm-17.8223-10.5957h28.418c2.19727 0 3.71094-1.46484 3.71094-3.61328 0-2.19727-1.51367-3.71094-3.71094-3.71094h-28.418c-2.24609 0-3.75977 1.51367-3.75977 3.71094 0 2.14844 1.51367 3.61328 3.75977 3.61328Z"/>
  </g>
  <g transform="matrix(0.2 0 0 0.2 281.506 1933)">
   <path d="m58.5449 14.5508c27.4902 0 49.8047-22.3145 49.8047-49.8047s-22.3145-49.8047-49.8047-49.8047-49.8047 22.3145-49.8047 49.8047 22.3145 49.8047 49.8047 49.8047Zm0-8.30078c-22.9492 0-41.5039-18.5547-41.5039-41.5039s18.5547-41.5039 41.5039-41.5039 41.5039 18.5547 41.5039 41.5039-18.5547 41.5039-41.5039 41.5039Zm4.05273-23.0957v-36.9141c0-2.49023-1.70898-4.19922-4.15039-4.19922-2.39258 0-4.05273 1.70898-4.05273 4.19922v36.9141c0 2.44141 1.66016 4.15039 4.05273 4.15039 2.44141 0 4.15039-1.66016 4.15039-4.15039Zm-22.5586-14.4043h36.9629c2.44141 0 4.15039-1.61133 4.15039-4.00391 0-2.44141-1.70898-4.15039-4.15039-4.15039h-36.9629c-2.49023 0-4.15039 1.70898-4.15039 4.15039 0 2.39258 1.66016 4.00391 4.15039 4.00391Z"/>
  </g>
  <g transform="matrix(0.2 0 0 0.2 304.924 1933)">
   <path d="m74.8535 28.3203c35.1074 0 63.623-28.4668 63.623-63.5742s-28.5156-63.623-63.623-63.623-63.5742 28.5156-63.5742 63.623 28.4668 63.5742 63.5742 63.5742Zm0-9.08203c-30.127 0-54.4922-24.3652-54.4922-54.4922s24.3652-54.4922 54.4922-54.4922 54.4922 24.3652 54.4922 54.4922-24.3652 54.4922-54.4922 54.4922Zm4.44336-30.3223v-48.4863c0-2.73438-1.85547-4.63867-4.54102-4.63867-2.58789 0-4.44336 1.9043-4.44336 4.63867v48.4863c0 2.68555 1.85547 4.58984 4.44336 4.58984 2.68555 0 4.54102-1.85547 4.54102-4.58984Zm-28.7109-19.7754h48.4863c2.68555 0 4.58984-1.80664 4.58984-4.39453 0-2.73438-1.85547-4.58984-4.58984-4.58984h-48.4863c-2.73438 0-4.58984 1.85547-4.58984 4.58984 0 2.58789 1.85547 4.39453 4.58984 4.39453Z"/>
  </g>
  <text style="stroke:none;fill:black;font-family:sans-serif;font-size:13;font-weight:bold;" transform="matrix(1 0 0 1 263 1953)">Design Variations</text>
  <text style="stroke:none;fill:black;font-family:sans-serif;font-size:13;" transform="matrix(1 0 0 1 263 1971)">Symbols are supported in up to nine weights and three scales.</text>
  <text style="stroke:none;fill:black;font-family:sans-serif;font-size:13;" transform="matrix(1 0 0 1 263 1989)">For optimal layout with text and other symbols, vertically align</text>
  <text style="stroke:none;fill:black;font-family:sans-serif;font-size:13;" transform="matrix(1 0 0 1 263 2007)">symbols with the adjacent text.</text>
  <line style="fill:none;stroke:#00AEEF;stroke-width:0.5;opacity:1.0;" x1="776" x2="776" y1="1919" y2="1933"/>
  <g transform="matrix(0.2 0 0 0.2 776 1933)">
   <path d="m16.5527 0.78125c2.58789 0 3.85742-0.976562 4.78516-3.71094l20.5566-57.5195h0.244141l20.6055 57.5195c0.927734 2.73438 2.19727 3.71094 4.73633 3.71094 2.58789 0 4.24805-1.5625 4.24805-4.00391 0-0.830078-0.146484-1.61133-0.537109-2.63672l-22.9004-60.9863c-1.12305-2.97852-3.125-4.49219-6.25-4.49219-3.02734 0-5.07812 1.46484-6.15234 4.44336l-22.9004 61.084c-0.390625 1.02539-0.537109 1.80664-0.537109 2.63672 0 2.44141 1.5625 3.95508 4.10156 3.95508Zm10.2051-20.9473h30.6641c2.00195 0 3.66211-1.66016 3.66211-3.66211 0-2.05078-1.66016-3.66211-3.66211-3.66211h-30.6641c-2.00195 0-3.66211 1.61133-3.66211 3.66211 0 2.00195 1.66016 3.66211 3.66211 3.66211Z"/>
  </g>
  <line style="fill:none;stroke:#00AEEF;stroke-width:0.5;opacity:1.0;" x1="792.836" x2="792.836" y1="1919" y2="1933"/>
  <text style="stroke:none;fill:black;font-family:sans-serif;font-size:13;font-weight:bold;" transform="matrix(1 0 0 1 776 1953)">Margins</text>
  <text style="stroke:none;fill:black;font-family:sans-serif;font-size:13;" transform="matrix(1 0 0 1 776 1971)">Leading and trailing margins on the left and right side of each symbol</text>
  <text style="stroke:none;fill:black;font-family:sans-serif;font-size:13;" transform="matrix(1 0 0 1 776 1989)">can be adjusted by modifying the x-location of the margin guidelines.</text>
  <text style="stroke:none;fill:black;font-family:sans-serif;font-size:13;" transform="matrix(1 0 0 1 776 2007)">Modifications are automatically applied proportionally to all</text>
  <text style="stroke:none;fill:black;font-family:sans-serif;font-size:13;" transform="matrix(1 0 0 1 776 2025)">scales and weights.</text>
  <g transform="matrix(0.2 0 0 0.2 1289 1933)">
   <path d="m14.209 13.1348 7.86133 7.86133c4.29688 4.39453 9.32617 4.10156 13.8672-1.02539l60.6934-68.2129-4.88281-4.88281-60.2539 67.6758c-1.80664 1.95312-3.4668 2.44141-5.81055 0.0976562l-5.17578-5.12695c-2.29492-2.29492-1.80664-3.95508 0.195312-5.81055l67.4805-62.1582-4.88281-4.83398-68.0664 62.5977c-4.98047 4.58984-5.32227 9.47266-1.02539 13.8184Zm44.873-97.4609c-2.05078 2.00195-2.24609 4.88281-1.07422 6.78711 1.12305 1.80664 3.4668 3.02734 6.5918 2.24609 5.85938-1.66016 12.5977-2.39258 18.8965 0.927734l-2.68555 7.12891c-1.61133 4.00391-0.732422 6.88477 1.70898 9.42383l10.2539 10.3027c2.34375 2.39258 4.54102 2.44141 7.08008 1.95312l4.44336-0.732422 2.58789 2.53906-0.195312 2.24609c-0.0976562 2.29492 0.537109 4.29688 2.7832 6.49414l3.36914 3.32031c2.29492 2.29492 5.51758 2.49023 7.8125 0.195312l12.9883-13.0371c2.29492-2.34375 2.14844-5.37109-0.195312-7.66602l-3.41797-3.41797c-2.19727-2.19727-4.05273-3.02734-6.34766-2.88086l-2.34375 0.244141-2.44141-2.44141 1.02539-4.6875c0.634766-2.73438-0.244141-4.98047-2.88086-7.61719l-11.2793-11.1816c-12.9395-12.8418-35.5957-11.0352-46.6797-0.146484Zm7.08008 2.05078c8.78906-6.39648 25.9766-5.66406 33.6914 1.95312l12.3047 12.207c1.02539 1.02539 1.2207 1.80664 0.927734 3.32031l-1.46484 6.64062 6.73828 6.68945 4.39453-0.244141c1.12305-0.0488281 1.51367 0.0488281 2.34375 0.878906l2.53906 2.49023-10.8398 10.8398-2.49023-2.49023c-0.830078-0.878906-0.976562-1.2207-0.927734-2.39258l0.292969-4.3457-6.68945-6.73828-6.83594 1.17188c-1.41602 0.292969-2.05078 0.195312-3.17383-0.878906l-8.93555-8.88672c-1.07422-1.02539-1.17188-1.70898-0.488281-3.36914l4.58984-11.4746c-6.10352-6.34766-17.041-7.51953-25.5859-4.58984-0.683594 0.244141-0.927734-0.390625-0.390625-0.78125Z"/>
  </g>
  <text style="stroke:none;fill:black;font-family:sans-serif;font-size:13;font-weight:bold;" transform="matrix(1 0 0 1 1289 1953)">Exporting</text>
  <text style="stroke:none;fill:black;font-family:sans-serif;font-size:13;" transform="matrix(1 0 0 1 1289 1971)">Symbols should be outlined when exporting to ensure the</text>
  <text style="stroke:none;fill:black;font-family:sans-serif;font-size:13;" transform="matrix(1 0 0 1 1289 1989)">design is preserved when submitting to Xcode.</text>
  <text id="template-version" style="stroke:none;fill:black;font-family:sans-serif;font-size:13;text-anchor:end;" transform="matrix(1 0 0 1 3036 1933)">Template v.7.0</text>
  <text style="stroke:none;fill:black;font-family:sans-serif;font-size:13;text-anchor:end;" transform="matrix(1 0 0 1 3036 1951)">Requires Xcode 26 or greater</text>
  <text id="descriptive-name" style="stroke:none;fill:black;font-family:sans-serif;font-size:13;text-anchor:end;" transform="matrix(1 0 0 1 3036 1969)">Generated from music.pages.fill</text>
  <text style="stroke:none;fill:black;font-family:sans-serif;font-size:13;text-anchor:end;" transform="matrix(1 0 0 1 3036 1987)">Typeset at 100.0 points</text>
  <text style="stroke:none;fill:black;font-family:sans-serif;font-size:13;" transform="matrix(1 0 0 1 263 726)">Small</text>
  <text style="stroke:none;fill:black;font-family:sans-serif;font-size:13;" transform="matrix(1 0 0 1 263 1156)">Medium</text>
  <text style="stroke:none;fill:black;font-family:sans-serif;font-size:13;" transform="matrix(1 0 0 1 263 1586)">Large</text>
 </g>
 <g id="Guides">
  <g id="H-reference" style="fill:#27AAE1;stroke:none;" transform="matrix(1 0 0 1 339 696)">
   <path d="M0.993654 0L3.63775 0L29.3281-67.1323L30.0303-67.1323L30.0303-70.459L28.1226-70.459ZM11.6885-24.4799L46.9815-24.4799L46.2315-26.7285L12.4385-26.7285ZM55.1196 0L57.7637 0L30.6382-70.459L29.4326-70.459L29.4326-67.1323Z"/>
  </g>
  <line id="Baseline-S" style="fill:none;stroke:#27AAE1;opacity:1;stroke-width:0.5;" x1="263" x2="3036" y1="696" y2="696"/>
  <line id="Capline-S" style="fill:none;stroke:#27AAE1;opacity:1;stroke-width:0.5;" x1="263" x2="3036" y1="625.541" y2="625.541"/>
  <g id="H-reference" style="fill:#27AAE1;stroke:none;" transform="matrix(1 0 0 1 339 1126)">
   <path d="M0.993654 0L3.63775 0L29.3281-67.1323L30.0303-67.1323L30.0303-70.459L28.1226-70.459ZM11.6885-24.4799L46.9815-24.4799L46.2315-26.7285L12.4385-26.7285ZM55.1196 0L57.7637 0L30.6382-70.459L29.4326-70.459L29.4326-67.1323Z"/>
  </g>
  <line id="Baseline-M" style="fill:none;stroke:#27AAE1;opacity:1;stroke-width:0.5;" x1="263" x2="3036" y1="1126" y2="1126"/>
  <line id="Capline-M" style="fill:none;stroke:#27AAE1;opacity:1;stroke-width:0.5;" x1="263" x2="3036" y1="1055.54" y2="1055.54"/>
  <g id="H-reference" style="fill:#27AAE1;stroke:none;" transform="matrix(1 0 0 1 339 1556)">
   <path d="M0.993654 0L3.63775 0L29.3281-67.1323L30.0303-67.1323L30.0303-70.459L28.1226-70.459ZM11.6885-24.4799L46.9815-24.4799L46.2315-26.7285L12.4385-26.7285ZM55.1196 0L57.7637 0L30.6382-70.459L29.4326-70.459L29.4326-67.1323Z"/>
  </g>
  <line id="Baseline-L" style="fill:none;stroke:#27AAE1;opacity:1;stroke-width:0.5;" x1="263" x2="3036" y1="1556" y2="1556"/>
  <line id="Capline-L" style="fill:none;stroke:#27AAE1;opacity:1;stroke-width:0.5;" x1="263" x2="3036" y1="1485.54" y2="1485.54"/>
  <line id="right-margin-Black-S" style="fill:none;stroke:#00AEEF;stroke-width:0.5;opacity:1.0;" x1="2984.08" x2="2984.08" y1="600.785" y2="720.121"/>
  <line id="left-margin-Black-S" style="fill:none;stroke:#00AEEF;stroke-width:0.5;opacity:1.0;" x1="2882.72" x2="2882.72" y1="600.785" y2="720.121"/>
  <line id="right-margin-Regular-S" style="fill:none;stroke:#00AEEF;stroke-width:0.5;opacity:1.0;" x1="1494.94" x2="1494.94" y1="600.785" y2="720.121"/>
  <line id="left-margin-Regular-S" style="fill:none;stroke:#00AEEF;stroke-width:0.5;opacity:1.0;" x1="1404.75" x2="1404.75" y1="600.785" y2="720.121"/>
  <line id="right-margin-Ultralight-S" style="fill:none;stroke:#00AEEF;stroke-width:0.5;opacity:1.0;" x1="600.74" x2="600.74" y1="600.785" y2="720.121"/>
  <line id="left-margin-Ultralight-S" style="fill:none;stroke:#00AEEF;stroke-width:0.5;opacity:1.0;" x1="518.683" x2="518.683" y1="600.785" y2="720.121"/>
 </g>
 <g id="Symbols">
  <g id="Black-S" transform="matrix(1 0 0 1 2882.72 696)">
   <path class="monochrome-0 multicolor-0:tintColor hierarchical-0:secondary SFSymbolsPreviewWireframe" d="M91.6016-3.36914L91.6016-59.1309C91.6016-68.9453 86.4258-74.1699 76.7578-74.1699L39.209-74.1699C29.541-74.1699 24.3652-68.9453 24.3652-59.1309L24.3652-3.36914C24.3652 6.44531 29.541 11.6699 39.209 11.6699L76.7578 11.6699C86.4258 11.6699 91.6016 6.44531 91.6016-3.36914Z"/>
   <path class="monochrome-1 multicolor-1:tintColor hierarchical-1:primary SFSymbolsPreviewWireframe" d="M2.92969-4.88281C2.92969 7.08008 11.1816 15.6738 24.5605 14.8438C37.8906 14.0137 54.4922 11.1328 65.332 7.76367C74.9512 4.73633 79.3945-2.29492 79.3945-13.0859L79.3945-68.7012C79.3945-82.6172 69.1895-90.1855 55.5176-86.8652C45.8008-84.4238 32.2754-82.2266 20.9473-81.3965C9.375-80.5176 2.92969-73.5352 2.92969-62.4512Z"/>
   <path class="monochrome-2 multicolor-2:tintColor hierarchical-2:primary SFSymbolsPreviewWireframe" d="M9.76562-4.88281C9.76562 3.32031 14.8926 8.59375 24.1211 8.00781C37.0117 7.22656 52.9785 4.44336 63.2812 1.2207C70.5078-1.02539 72.5586-5.9082 72.5586-13.0859L72.5586-68.7012C72.5586-78.418 66.2109-82.4219 57.1289-80.2246C47.168-77.7344 33.0566-75.4395 21.4844-74.5605C13.6719-73.9746 9.76562-70.166 9.76562-62.4512Z"/>
   <path class="monochrome-3 multicolor-3:white hierarchical-3:primary SFSymbolsPreviewWireframe" d="M29.8828-13.6719C26.123-13.0859 23.291-15.2344 23.291-18.7988C23.291-22.3145 25.6348-25.1465 29.7852-26.5625L32.3242-27.4414C32.666-27.5391 32.7148-27.7832 32.7148-27.9785L32.6172-48.4375C32.6172-50.0977 33.6914-51.5137 35.5469-52.1484L53.2715-58.6426C56.1035-59.668 57.7637-58.7891 57.7637-56.1523L57.7637-30.6152C57.7637-25.7324 54.248-21.582 49.707-20.8496C45.8984-20.2637 43.0664-22.4121 43.0664-25.9766C43.0664-29.3945 45.3125-31.9824 49.6582-33.6426L52.3438-34.6191C52.5879-34.7168 52.6367-34.7168 52.6367-35.0098L52.5391-45.3613C52.5391-45.8008 52.2949-45.8496 51.9531-45.7031L38.4766-40.7715C38.0859-40.6738 37.9883-40.3809 37.9883-40.0879L37.9883-23.5352C37.9883-18.7012 34.4238-14.4043 29.8828-13.6719Z"/>
  </g>
  <g id="Regular-S" transform="matrix(1 0 0 1 1404.75 696)">
   <path class="monochrome-0 multicolor-0:tintColor hierarchical-0:secondary SFSymbolsPreviewWireframe" d="M80.4199-3.36914L80.4199-59.4238C80.4199-67.7246 76.3672-71.875 68.1641-71.875L30.2246-71.875C22.0215-71.875 17.9688-67.7246 17.9688-59.4238L17.9688-3.36914C17.9688 4.98047 22.0215 9.08203 30.2246 9.08203L68.1641 9.08203C76.3672 9.08203 80.4199 4.98047 80.4199-3.36914Z"/>
   <path class="monochrome-1 multicolor-1:tintColor hierarchical-1:primary SFSymbolsPreviewWireframe" d="M4.05273-4.83398C4.05273 5.37109 10.8398 11.9141 22.1191 11.1816C35.1074 10.3027 46.2402 9.0332 61.6699 4.44336C69.8242 1.9043 73.291-3.32031 73.291-12.793L73.291-67.5293C73.291-79.8828 65.1855-85.9863 54.0527-83.252C43.8965-80.8105 33.8379-78.9062 20.1172-77.9785C10.7422-77.2949 4.05273-71.1914 4.05273-60.7422Z"/>
   <path class="monochrome-2 multicolor-2:tintColor hierarchical-2:primary SFSymbolsPreviewWireframe" d="M9.76562-4.83398C9.76562 2.34375 14.1113 5.95703 21.7773 5.46875C34.5703 4.6875 45.1172 3.41797 60.0098-1.02539C65.625-2.73438 67.5781-5.71289 67.5781-12.793L67.5781-67.5293C67.5781-75.6836 63.3301-79.6875 55.4199-77.7344C45.1172-75.2441 34.5703-73.2422 20.5566-72.3145C14.1113-71.8262 9.76562-68.1152 9.76562-60.7422Z"/>
   <path class="monochrome-3 multicolor-3:white hierarchical-3:primary SFSymbolsPreviewWireframe" d="M25.7324-13.0371C22.3145-12.5 19.8242-14.4043 19.8242-17.5781C19.8242-20.8496 21.875-23.2422 25.9277-24.707L28.9551-25.7324C29.6875-26.0254 29.9805-26.4648 29.9805-27.2949L29.8828-49.5605C29.8828-50.8789 30.7129-51.8066 32.1289-52.3438L51.1719-59.2285C53.5645-60.1074 54.6387-59.5215 54.6387-57.4707L54.6387-29.9316C54.6387-24.0234 50.0488-21.1914 47.1191-20.752C43.6523-20.2148 41.1133-22.1191 41.1133-25.2441C41.1133-28.418 43.2129-30.7129 47.3145-32.2266L50.1953-33.3496C51.0254-33.6426 51.416-34.1797 51.416-35.0098L51.3184-47.4609C51.3184-48.0469 51.0742-48.0957 50.2441-47.8516L34.1309-41.9922C33.3984-41.748 33.3496-41.6504 33.3496-40.8691L33.3496-22.3633C33.3496-16.4551 28.6621-13.4766 25.7324-13.0371Z"/>
  </g>
  <g id="Ultralight-S" transform="matrix(1 0 0 1 518.683 696)">
   <path class="monochrome-0 multicolor-0:tintColor hierarchical-0:secondary SFSymbolsPreviewWireframe" d="M72.2916-3.50537L72.2916-64.101C72.2916-70.6308 68.8292-74.1001 62.3062-74.1001L28.3628-74.1001C21.8398-74.1001 18.3774-70.6308 18.3774-64.101L18.3774-3.50537C18.3774 3.02785 21.8398 6.49367 28.3628 6.49367L62.3062 6.49367C68.8292 6.49367 72.2916 3.02785 72.2916-3.50537Z"/>
   <path class="monochrome-1 multicolor-1:tintColor hierarchical-1:primary SFSymbolsPreviewWireframe" d="M6.6865-3.56251C6.6865 2.55569 11.0669 6.60112 17.4419 6.59525C30.521 6.48831 45.9224 5.53665 59.1724 3.30811C65.0562 2.31299 69.1587-1.23146 69.1587-7.70707L69.1587-69.6181C69.1587-76.3863 64.0049-80.3555 57.5039-79.2559C45.2134-77.314 30.2051-75.8638 17.8013-75.7988C11.0146-75.751 6.6865-71.6909 6.6865-65.1015Z"/>
   <path class="monochrome-2 multicolor-2:tintColor hierarchical-2:primary SFSymbolsPreviewWireframe" d="M9.76562-3.56251C9.76562 0.799817 12.7036 3.55031 17.418 3.51613C30.3926 3.41603 45.5713 2.50977 58.6475 0.336903C63.3091-0.463885 66.0796-2.94289 66.0796-7.70707L66.0796-69.6181C66.0796-74.4121 62.7398-77.0537 57.9629-76.2359C45.5713-74.2905 30.3926-72.7881 17.8321-72.7231C12.6582-72.689 9.76562-69.977 9.76562-65.1015Z"/>
   <path class="monochrome-3 multicolor-3:white hierarchical-3:primary SFSymbolsPreviewWireframe" d="M25.2783-14.8989C22.1782-14.5889 20.0059-16.3569 20.0059-19.1675C20.0059-22.1211 21.8296-24.105 25.519-25.2519L28.501-26.1411C29.3696-26.4341 29.7988-27.1006 29.7988-28.0669L29.7012-49.606C29.7012-50.6064 30.3042-51.3071 31.5386-51.708L49.0376-57.1851C51.0669-57.8823 51.8233-57.4326 51.8233-55.6997L51.8233-29.1597C51.8233-23.7056 47.7783-21.373 45.0303-21.0698C41.8814-20.7598 39.6602-22.5278 39.6602-25.335C39.6602-28.1455 41.4873-30.0772 45.271-31.3184L48.1065-32.2144C49.0728-32.5073 49.5996-33.3169 49.5996-34.2832L49.502-46.2349C49.502-47.1841 48.9854-47.4146 47.9737-47.125L33.2681-42.4917C32.3086-42.2021 32.1235-41.9228 32.1235-40.9146L32.1235-23.0444C32.1235-17.6811 28.0264-15.2021 25.2783-14.8989Z"/>
  </g>
 </g>
</svg>
